<svg width="200" height="200" viewBox="0 0 200 200" fill="none" xmlns="http://www.w3.org/2000/svg">
<rect width="200" height="200" fill="#004868"/>
<path d="M60 68.0625C60 74.125 55.0625 79 49 79C48.25 79 47.5625 78.9375 46.9375 78.8125L45.4375 80.5C45.125 80.8125 44.75 81 44.3125 81H42V83.5C42 84.375 41.3125 85 40.5 85H38V87.5C38 88.375 37.3125 89 36.5 89H29.5C28.625 89 28 88.375 28 87.5V82.625C28 82.25 28.125 81.875 28.4375 81.5625L38.5 71.5C38.1875 70.375 38 69.25 38 68C38 61.9375 42.875 57.0625 48.9375 57C55.0625 57 60 61.9375 60 68.0625ZM49 65C49 66.6875 50.3125 68 52 68C53.625 68 55 66.6875 55 65C55 63.375 53.625 62 52 62C50.3125 62 49 63.375 49 65Z" fill="white"/>
<path d="M81.186 88.288C78.9033 88.288 76.9513 87.8187 75.33 86.88C73.7087 85.9413 72.4607 84.608 71.586 82.88C70.7327 81.1307 70.306 79.072 70.306 76.704C70.306 74.9333 70.5513 73.344 71.042 71.936C71.5327 70.5067 72.2367 69.2907 73.154 68.288C74.0927 67.264 75.234 66.4853 76.578 65.952C77.9433 65.4187 79.4793 65.152 81.186 65.152C82.4447 65.152 83.65 65.3227 84.802 65.664C85.9753 66.0053 86.9887 66.496 87.842 67.136C88.2047 67.3707 88.4393 67.6587 88.546 68C88.674 68.32 88.6953 68.6293 88.61 68.928C88.546 69.2267 88.4073 69.4827 88.194 69.696C87.9807 69.888 87.7033 69.9947 87.362 70.016C87.042 70.0373 86.69 69.92 86.306 69.664C85.602 69.1307 84.8233 68.736 83.97 68.48C83.1167 68.224 82.2207 68.096 81.282 68.096C79.6607 68.096 78.2953 68.4373 77.186 69.12C76.0767 69.7813 75.234 70.752 74.658 72.032C74.082 73.312 73.794 74.8693 73.794 76.704C73.794 78.5387 74.082 80.1067 74.658 81.408C75.234 82.688 76.0767 83.6693 77.186 84.352C78.2953 85.0133 79.6607 85.344 81.282 85.344C82.2207 85.344 83.1167 85.216 83.97 84.96C84.8447 84.6827 85.666 84.2773 86.434 83.744C86.818 83.5093 87.1593 83.4027 87.458 83.424C87.778 83.4453 88.0447 83.552 88.258 83.744C88.4713 83.936 88.61 84.1813 88.674 84.48C88.7593 84.7573 88.7487 85.056 88.642 85.376C88.5567 85.6747 88.354 85.9307 88.034 86.144C87.1593 86.848 86.1247 87.3813 84.93 87.744C83.7353 88.1067 82.4873 88.288 81.186 88.288ZM96.8078 88.288C95.7198 88.288 94.7384 88.0747 93.8638 87.648C93.0104 87.2213 92.3384 86.6453 91.8478 85.92C91.3571 85.1947 91.1118 84.3733 91.1118 83.456C91.1118 82.304 91.3998 81.3973 91.9758 80.736C92.5731 80.0533 93.5438 79.5733 94.8878 79.296C96.2531 78.9973 98.0878 78.848 100.392 78.848H101.896V80.832H100.424C98.8878 80.832 97.6718 80.9067 96.7758 81.056C95.8798 81.2053 95.2398 81.4613 94.8558 81.824C94.4931 82.1653 94.3118 82.6453 94.3118 83.264C94.3118 84.0747 94.5891 84.736 95.1438 85.248C95.6984 85.7387 96.4664 85.984 97.4478 85.984C98.2371 85.984 98.9304 85.8027 99.5278 85.44C100.125 85.056 100.594 84.544 100.936 83.904C101.298 83.264 101.48 82.528 101.48 81.696V78.016C101.48 76.8 101.224 75.9253 100.712 75.392C100.2 74.8587 99.3571 74.592 98.1838 74.592C97.5011 74.592 96.7864 74.6773 96.0398 74.848C95.3144 75.0187 94.5571 75.3067 93.7678 75.712C93.4051 75.8827 93.0958 75.936 92.8398 75.872C92.5838 75.808 92.3811 75.6693 92.2318 75.456C92.0824 75.2213 91.9971 74.976 91.9758 74.72C91.9758 74.4427 92.0398 74.176 92.1678 73.92C92.3171 73.664 92.5624 73.472 92.9038 73.344C93.8424 72.896 94.7704 72.576 95.6878 72.384C96.6051 72.192 97.4691 72.096 98.2798 72.096C99.7091 72.096 100.882 72.32 101.8 72.768C102.738 73.216 103.432 73.8987 103.88 74.816C104.328 75.7333 104.552 76.9173 104.552 78.368V86.592C104.552 87.104 104.424 87.5093 104.168 87.808C103.912 88.0853 103.538 88.224 103.048 88.224C102.578 88.224 102.205 88.0853 101.928 87.808C101.65 87.5093 101.512 87.104 101.512 86.592V84.512H101.8C101.629 85.3013 101.309 85.984 100.84 86.56C100.392 87.1147 99.8264 87.5413 99.1438 87.84C98.4611 88.1387 97.6824 88.288 96.8078 88.288ZM110.635 88.224C110.102 88.224 109.697 88.0853 109.419 87.808C109.142 87.5093 109.003 87.104 109.003 86.592V73.792C109.003 73.2587 109.142 72.8533 109.419 72.576C109.697 72.2987 110.081 72.16 110.571 72.16C111.083 72.16 111.467 72.2987 111.723 72.576C112.001 72.8533 112.139 73.2587 112.139 73.792V76.128H111.819C112.161 74.848 112.79 73.8773 113.707 73.216C114.625 72.5547 115.798 72.1707 117.227 72.064C117.611 72.0427 117.91 72.1387 118.123 72.352C118.358 72.5653 118.486 72.896 118.507 73.344C118.55 73.792 118.454 74.1547 118.219 74.432C117.985 74.688 117.622 74.8373 117.131 74.88L116.523 74.944C115.137 75.072 114.081 75.5093 113.355 76.256C112.63 77.0027 112.267 78.0267 112.267 79.328V86.592C112.267 87.104 112.129 87.5093 111.851 87.808C111.595 88.0853 111.19 88.224 110.635 88.224ZM122.957 88.224C122.423 88.224 122.007 88.0747 121.709 87.776C121.431 87.4773 121.293 87.0613 121.293 86.528V66.88C121.293 66.3253 121.431 65.9093 121.709 65.632C122.007 65.3547 122.423 65.216 122.957 65.216C123.49 65.216 123.895 65.3547 124.173 65.632C124.471 65.9093 124.621 66.3253 124.621 66.88V75.584H124.685L134.509 66.08C134.829 65.7813 135.127 65.568 135.405 65.44C135.703 65.2907 136.034 65.216 136.397 65.216C136.887 65.216 137.239 65.344 137.453 65.6C137.687 65.8347 137.783 66.1227 137.741 66.464C137.698 66.8053 137.517 67.136 137.197 67.456L126.989 77.184L127.053 75.552L137.677 85.792C138.061 86.1547 138.263 86.528 138.285 86.912C138.306 87.296 138.189 87.616 137.933 87.872C137.677 88.1067 137.314 88.224 136.845 88.224C136.418 88.224 136.077 88.1387 135.821 87.968C135.565 87.7973 135.266 87.552 134.925 87.232L124.685 77.472H124.621V86.528C124.621 87.0613 124.482 87.4773 124.205 87.776C123.927 88.0747 123.511 88.224 122.957 88.224ZM148.456 88.288C146.75 88.288 145.278 87.968 144.04 87.328C142.824 86.6667 141.875 85.7387 141.192 84.544C140.531 83.328 140.2 81.888 140.2 80.224C140.2 78.6027 140.531 77.184 141.192 75.968C141.854 74.752 142.76 73.8027 143.912 73.12C145.064 72.4373 146.376 72.096 147.848 72.096C148.936 72.096 149.907 72.2773 150.76 72.64C151.614 72.9813 152.339 73.4933 152.936 74.176C153.555 74.8373 154.014 75.648 154.312 76.608C154.632 77.568 154.792 78.6453 154.792 79.84C154.792 80.2027 154.686 80.48 154.472 80.672C154.259 80.8427 153.939 80.928 153.512 80.928H142.76V78.944H152.616L152.072 79.392C152.072 78.3253 151.912 77.4187 151.592 76.672C151.294 75.9253 150.835 75.36 150.216 74.976C149.619 74.5707 148.872 74.368 147.976 74.368C146.974 74.368 146.12 74.6027 145.416 75.072C144.734 75.5413 144.211 76.192 143.848 77.024C143.486 77.856 143.304 78.8267 143.304 79.936V80.128C143.304 82.0053 143.742 83.424 144.616 84.384C145.512 85.3227 146.803 85.792 148.488 85.792C149.128 85.792 149.8 85.7067 150.504 85.536C151.23 85.3653 151.912 85.0773 152.552 84.672C152.915 84.4587 153.235 84.3627 153.512 84.384C153.811 84.4053 154.046 84.5013 154.216 84.672C154.408 84.8427 154.526 85.056 154.568 85.312C154.611 85.568 154.568 85.8347 154.44 86.112C154.312 86.368 154.088 86.6027 153.768 86.816C153.043 87.3067 152.2 87.68 151.24 87.936C150.28 88.1707 149.352 88.288 148.456 88.288ZM161.777 93.984C161.393 93.984 161.073 93.8773 160.817 93.664C160.582 93.472 160.444 93.2053 160.401 92.864C160.38 92.544 160.444 92.192 160.593 91.808L162.769 86.912V88.288L156.785 74.368C156.636 73.984 156.582 73.6213 156.625 73.28C156.668 72.9387 156.828 72.672 157.105 72.48C157.382 72.2667 157.756 72.16 158.225 72.16C158.63 72.16 158.95 72.256 159.185 72.448C159.42 72.64 159.633 72.9707 159.825 73.44L164.657 85.376H163.761L168.657 73.44C168.849 72.9493 169.073 72.6187 169.329 72.448C169.585 72.256 169.937 72.16 170.385 72.16C170.769 72.16 171.068 72.2667 171.281 72.48C171.516 72.672 171.654 72.9387 171.697 73.28C171.761 73.6 171.708 73.952 171.537 74.336L163.537 92.736C163.324 93.2267 163.078 93.5573 162.801 93.728C162.545 93.8987 162.204 93.984 161.777 93.984Z" fill="white"/>
<rect x="28" y="101" width="144" height="36" rx="6" fill="#DFF1F9"/>
<path d="M77.368 124.144C76.2267 124.144 75.2507 123.909 74.44 123.44C73.6293 122.971 73.0053 122.304 72.568 121.44C72.1413 120.565 71.928 119.536 71.928 118.352C71.928 117.467 72.0507 116.672 72.296 115.968C72.5413 115.253 72.8933 114.645 73.352 114.144C73.8213 113.632 74.392 113.243 75.064 112.976C75.7467 112.709 76.5147 112.576 77.368 112.576C77.9973 112.576 78.6 112.661 79.176 112.832C79.7627 113.003 80.2693 113.248 80.696 113.568C80.8773 113.685 80.9947 113.829 81.048 114C81.112 114.16 81.1227 114.315 81.08 114.464C81.048 114.613 80.9787 114.741 80.872 114.848C80.7653 114.944 80.6267 114.997 80.456 115.008C80.296 115.019 80.12 114.96 79.928 114.832C79.576 114.565 79.1867 114.368 78.76 114.24C78.3333 114.112 77.8853 114.048 77.416 114.048C76.6053 114.048 75.9227 114.219 75.368 114.56C74.8133 114.891 74.392 115.376 74.104 116.016C73.816 116.656 73.672 117.435 73.672 118.352C73.672 119.269 73.816 120.053 74.104 120.704C74.392 121.344 74.8133 121.835 75.368 122.176C75.9227 122.507 76.6053 122.672 77.416 122.672C77.8853 122.672 78.3333 122.608 78.76 122.48C79.1973 122.341 79.608 122.139 79.992 121.872C80.184 121.755 80.3547 121.701 80.504 121.712C80.664 121.723 80.7973 121.776 80.904 121.872C81.0107 121.968 81.08 122.091 81.112 122.24C81.1547 122.379 81.1493 122.528 81.096 122.688C81.0533 122.837 80.952 122.965 80.792 123.072C80.3547 123.424 79.8373 123.691 79.24 123.872C78.6427 124.053 78.0187 124.144 77.368 124.144ZM85.3843 124.144C84.8403 124.144 84.3496 124.037 83.9123 123.824C83.4856 123.611 83.1496 123.323 82.9043 122.96C82.6589 122.597 82.5363 122.187 82.5363 121.728C82.5363 121.152 82.6803 120.699 82.9683 120.368C83.2669 120.027 83.7523 119.787 84.4243 119.648C85.1069 119.499 86.0243 119.424 87.1763 119.424H87.9283V120.416H87.1923C86.4243 120.416 85.8163 120.453 85.3683 120.528C84.9203 120.603 84.6003 120.731 84.4083 120.912C84.2269 121.083 84.1363 121.323 84.1363 121.632C84.1363 122.037 84.2749 122.368 84.5523 122.624C84.8296 122.869 85.2136 122.992 85.7043 122.992C86.0989 122.992 86.4456 122.901 86.7443 122.72C87.0429 122.528 87.2776 122.272 87.4483 121.952C87.6296 121.632 87.7203 121.264 87.7203 120.848V119.008C87.7203 118.4 87.5923 117.963 87.3363 117.696C87.0803 117.429 86.6589 117.296 86.0723 117.296C85.7309 117.296 85.3736 117.339 85.0003 117.424C84.6376 117.509 84.2589 117.653 83.8643 117.856C83.6829 117.941 83.5283 117.968 83.4003 117.936C83.2723 117.904 83.1709 117.835 83.0963 117.728C83.0216 117.611 82.9789 117.488 82.9683 117.36C82.9683 117.221 83.0003 117.088 83.0643 116.96C83.1389 116.832 83.2616 116.736 83.4323 116.672C83.9016 116.448 84.3656 116.288 84.8243 116.192C85.2829 116.096 85.7149 116.048 86.1203 116.048C86.8349 116.048 87.4216 116.16 87.8803 116.384C88.3496 116.608 88.6963 116.949 88.9203 117.408C89.1443 117.867 89.2563 118.459 89.2563 119.184V123.296C89.2563 123.552 89.1923 123.755 89.0643 123.904C88.9363 124.043 88.7496 124.112 88.5043 124.112C88.2696 124.112 88.0829 124.043 87.9443 123.904C87.8056 123.755 87.7363 123.552 87.7363 123.296V122.256H87.8803C87.7949 122.651 87.6349 122.992 87.4003 123.28C87.1763 123.557 86.8936 123.771 86.5523 123.92C86.2109 124.069 85.8216 124.144 85.3843 124.144ZM92.3735 124.112C92.1388 124.112 91.9575 124.048 91.8295 123.92C91.7122 123.781 91.6535 123.589 91.6535 123.344V116.944C91.6535 116.763 91.6802 116.608 91.7335 116.48C91.7868 116.352 91.8668 116.256 91.9735 116.192C92.0802 116.117 92.2188 116.08 92.3895 116.08C92.5495 116.08 92.6828 116.107 92.7895 116.16C92.8962 116.213 92.9868 116.283 93.0615 116.368C93.1362 116.453 93.2002 116.549 93.2535 116.656L95.8135 121.136L98.3575 116.656C98.4215 116.539 98.4908 116.437 98.5655 116.352C98.6402 116.267 98.7308 116.203 98.8375 116.16C98.9442 116.107 99.0722 116.08 99.2215 116.08C99.4668 116.08 99.6482 116.155 99.7655 116.304C99.8935 116.453 99.9575 116.667 99.9575 116.944V123.344C99.9575 123.589 99.8935 123.781 99.7655 123.92C99.6482 124.048 99.4722 124.112 99.2375 124.112C99.0135 124.112 98.8375 124.048 98.7095 123.92C98.5922 123.781 98.5335 123.589 98.5335 123.344V118.064H98.9015L96.3735 122.448C96.3202 122.544 96.2508 122.629 96.1655 122.704C96.0802 122.779 95.9628 122.816 95.8135 122.816C95.6535 122.816 95.5308 122.779 95.4455 122.704C95.3708 122.619 95.3068 122.533 95.2535 122.448L92.7095 118.064H93.0775V123.344C93.0775 123.589 93.0135 123.781 92.8855 123.92C92.7682 124.048 92.5975 124.112 92.3735 124.112ZM104.9 124.144C104.356 124.144 103.865 124.037 103.428 123.824C103.001 123.611 102.665 123.323 102.42 122.96C102.175 122.597 102.052 122.187 102.052 121.728C102.052 121.152 102.196 120.699 102.484 120.368C102.783 120.027 103.268 119.787 103.94 119.648C104.623 119.499 105.54 119.424 106.692 119.424H107.444V120.416H106.708C105.94 120.416 105.332 120.453 104.884 120.528C104.436 120.603 104.116 120.731 103.924 120.912C103.743 121.083 103.652 121.323 103.652 121.632C103.652 122.037 103.791 122.368 104.068 122.624C104.345 122.869 104.729 122.992 105.22 122.992C105.615 122.992 105.961 122.901 106.26 122.72C106.559 122.528 106.793 122.272 106.964 121.952C107.145 121.632 107.236 121.264 107.236 120.848V119.008C107.236 118.4 107.108 117.963 106.852 117.696C106.596 117.429 106.175 117.296 105.588 117.296C105.247 117.296 104.889 117.339 104.516 117.424C104.153 117.509 103.775 117.653 103.38 117.856C103.199 117.941 103.044 117.968 102.916 117.936C102.788 117.904 102.687 117.835 102.612 117.728C102.537 117.611 102.495 117.488 102.484 117.36C102.484 117.221 102.516 117.088 102.58 116.96C102.655 116.832 102.777 116.736 102.948 116.672C103.417 116.448 103.881 116.288 104.34 116.192C104.799 116.096 105.231 116.048 105.636 116.048C106.351 116.048 106.937 116.16 107.396 116.384C107.865 116.608 108.212 116.949 108.436 117.408C108.66 117.867 108.772 118.459 108.772 119.184V123.296C108.772 123.552 108.708 123.755 108.58 123.904C108.452 124.043 108.265 124.112 108.02 124.112C107.785 124.112 107.599 124.043 107.46 123.904C107.321 123.755 107.252 123.552 107.252 123.296V122.256H107.396C107.311 122.651 107.151 122.992 106.916 123.28C106.692 123.557 106.409 123.771 106.068 123.92C105.727 124.069 105.337 124.144 104.9 124.144ZM111.985 126.992C111.729 126.992 111.532 126.923 111.393 126.784C111.254 126.645 111.185 126.443 111.185 126.176V116.896C111.185 116.629 111.254 116.427 111.393 116.288C111.532 116.149 111.724 116.08 111.969 116.08C112.225 116.08 112.422 116.149 112.561 116.288C112.7 116.427 112.769 116.629 112.769 116.896V118.288L112.593 117.952C112.764 117.376 113.1 116.917 113.601 116.576C114.102 116.224 114.694 116.048 115.377 116.048C116.07 116.048 116.673 116.213 117.185 116.544C117.708 116.875 118.108 117.339 118.385 117.936C118.673 118.533 118.817 119.253 118.817 120.096C118.817 120.917 118.673 121.637 118.385 122.256C118.108 122.864 117.713 123.333 117.201 123.664C116.689 123.984 116.081 124.144 115.377 124.144C114.705 124.144 114.118 123.973 113.617 123.632C113.116 123.291 112.78 122.837 112.609 122.272H112.801V126.176C112.801 126.443 112.726 126.645 112.577 126.784C112.438 126.923 112.241 126.992 111.985 126.992ZM114.977 122.896C115.425 122.896 115.814 122.789 116.145 122.576C116.476 122.363 116.732 122.048 116.913 121.632C117.094 121.216 117.185 120.704 117.185 120.096C117.185 119.179 116.982 118.485 116.577 118.016C116.182 117.547 115.649 117.312 114.977 117.312C114.54 117.312 114.15 117.419 113.809 117.632C113.478 117.835 113.222 118.144 113.041 118.56C112.86 118.976 112.769 119.488 112.769 120.096C112.769 121.003 112.972 121.696 113.377 122.176C113.782 122.656 114.316 122.896 114.977 122.896ZM123.306 124.144C122.762 124.144 122.271 124.037 121.834 123.824C121.407 123.611 121.071 123.323 120.826 122.96C120.581 122.597 120.458 122.187 120.458 121.728C120.458 121.152 120.602 120.699 120.89 120.368C121.189 120.027 121.674 119.787 122.346 119.648C123.029 119.499 123.946 119.424 125.098 119.424H125.85V120.416H125.114C124.346 120.416 123.738 120.453 123.29 120.528C122.842 120.603 122.522 120.731 122.33 120.912C122.149 121.083 122.058 121.323 122.058 121.632C122.058 122.037 122.197 122.368 122.474 122.624C122.751 122.869 123.135 122.992 123.626 122.992C124.021 122.992 124.367 122.901 124.666 122.72C124.965 122.528 125.199 122.272 125.37 121.952C125.551 121.632 125.642 121.264 125.642 120.848V119.008C125.642 118.4 125.514 117.963 125.258 117.696C125.002 117.429 124.581 117.296 123.994 117.296C123.653 117.296 123.295 117.339 122.922 117.424C122.559 117.509 122.181 117.653 121.786 117.856C121.605 117.941 121.45 117.968 121.322 117.936C121.194 117.904 121.093 117.835 121.018 117.728C120.943 117.611 120.901 117.488 120.89 117.36C120.89 117.221 120.922 117.088 120.986 116.96C121.061 116.832 121.183 116.736 121.354 116.672C121.823 116.448 122.287 116.288 122.746 116.192C123.205 116.096 123.637 116.048 124.042 116.048C124.757 116.048 125.343 116.16 125.802 116.384C126.271 116.608 126.618 116.949 126.842 117.408C127.066 117.867 127.178 118.459 127.178 119.184V123.296C127.178 123.552 127.114 123.755 126.986 123.904C126.858 124.043 126.671 124.112 126.426 124.112C126.191 124.112 126.005 124.043 125.866 123.904C125.727 123.755 125.658 123.552 125.658 123.296V122.256H125.802C125.717 122.651 125.557 122.992 125.322 123.28C125.098 123.557 124.815 123.771 124.474 123.92C124.133 124.069 123.743 124.144 123.306 124.144Z" fill="#004868"/>
</svg>
