<svg xmlns="http://www.w3.org/2000/svg" viewBox="0 0 479.31 179.73"><title>ford logo</title><path d="M512,422.14C379,422.14,272.35,462,272.35,512c0,49.69,107.51,89.87,239.65,89.87S751.65,561.55,751.65,512,644.15,422.14,512,422.14" transform="translate(-272.35 -422.14)" style="fill:#00467f"/><path d="M652.8,486.22c.31-.55,0-1-.71-1H640c-.9,0-1.36.11-1.79.94-1.39,2.66-18.31,28-21.46,33-.53.75-1.18.64-1.25-.21-.32-2.92-2.85-6.29-6.83-7.89a17.38,17.38,0,0,0-9.08-1c-5.57.75-10.53,3.69-14.89,7-6.57,5-12.24,11.47-19.56,16.25-4,2.61-9.47,4.88-13.13,1.49-3.31-3.07-2.93-9.9,2.13-15.17.54-.55,1.18-.09,1.08.4a6.7,6.7,0,0,0,1.92,6.42,7.24,7.24,0,0,0,8.09.89,10.61,10.61,0,0,0,5.62-8.12,9.24,9.24,0,0,0-8.49-10.52c-4.22-.29-8.25,1.17-12.19,4.42a23.31,23.31,0,0,0-4.8,5.28c-.42.59-1.05.65-1-.23.19-6.9-2.66-10.77-8.36-10.9-4.42-.11-9.15,2.3-12.84,5.23-4,3.24-7.57,7.54-11.36,11.58-.47.5-.88.48-1-.49a23.31,23.31,0,0,0-3.38-12.14,2.8,2.8,0,0,0-3.64-.89,26,26,0,0,0-4.29,2.56,2.41,2.41,0,0,0-.73,2.72A31.93,31.93,0,0,1,497.53,537c-2.54,6-7.48,11.42-13.29,13.25-3.83,1.21-7.81.62-10.26-2.77-3.38-4.68-2-12.82,3-19.58,4.44-6,10.88-9.74,17.29-12.17a1,1,0,0,0,.7-1.42c-.35-1.05-.9-2.49-1.13-3.15-.59-1.56-2.24-1.82-4.25-1.6a36.16,36.16,0,0,0-13,4.37C465.71,519.7,460.26,531,457.87,537a23.58,23.58,0,0,1-3.41,6.31c-1.71,2.16-3.87,4.12-7.81,7.57a1.39,1.39,0,0,0-.32,1.6c.4.83,2.45,3.72,3,4a1.76,1.76,0,0,0,1.68-.34,40.51,40.51,0,0,0,7.66-6.83c.57-.69,1.15-.4,1.45.65A16.94,16.94,0,0,0,471,561.52c10,3.36,20.32-1.5,28.13-10,5-5.39,6.75-8.85,8.65-11.21,3.22-4,9.58-12.93,17.16-18.67,2.77-2.11,6.06-3.73,7.72-2.66,1.33.86,1.75,2.86-.38,6.73-7.72,14.1-19.08,30.67-21.16,34.68-.38.7,0,1.25.68,1.25,4,0,8,0,11.72,0a1.4,1.4,0,0,0,1.19-.74c5.92-9.28,11.5-18.11,17.48-27.23.33-.54.64-.12.65.11a15.15,15.15,0,0,0,1.9,6.92,10.35,10.35,0,0,0,9,5.05c2.83,0,4.26-.4,7.31-1.54a25.55,25.55,0,0,0,6-3.22c.89-.62,1,.42,1,.58-1.37,7.36.32,16.09,7.64,19.7,8.75,4.32,18.38-1.75,23.91-7.23.54-.53,1.13-.47,1.18.67a10.14,10.14,0,0,0,2.8,6.31c4.64,4.65,14,2.81,23.4-4.47a117.32,117.32,0,0,0,18-18.2.81.81,0,0,0,0-1.14c-.87-.9-2.13-1.95-3-2.75a1.06,1.06,0,0,0-1.3,0c-5.85,5.56-11.11,11.9-18.71,17.14-2.56,1.79-6.65,3.23-8.49.75-.72-1-.63-2.3.07-4,2.22-5.53,37.32-59,39.14-62.12M606.4,531c.07.41.6.8,1.13,1,.18.07.29.2.08.63a51.85,51.85,0,0,1-4.73,7.82,29.39,29.39,0,0,1-6,6.5c-3.54,2.93-8.45,6.12-12.52,4-1.8-.94-2.59-3.47-2.55-5.51.09-5.75,2.65-11.65,7.37-17.46,5.76-7.09,12.13-10.77,16.3-8.76s2.95,7.07,1,11a1.06,1.06,0,0,0-.08.81" transform="translate(-272.35 -422.14)" style="fill:#fff"/><path d="M398.2,561.46c-13.09.09-24.62-8-25.94-22a28.26,28.26,0,0,1,5.85-20.37c3.89-5.08,10.48-9.29,16.06-10.32,1.81-.33,4.25-.12,5.26,1.08,1.58,1.84,1.13,3.86-.45,4.67-4.25,2.17-9.38,5.89-11.92,11a13.47,13.47,0,0,0,.67,13.91c5.25,7.93,19.9,8.15,33.53-4.5a118.07,118.07,0,0,0,9.46-9.6c6-6.86,8-9.36,16-20.43a.43.43,0,0,0,.08-.38c-.07-.14-.18-.18-.41-.19a24.34,24.34,0,0,0-14.48,5.1,2.82,2.82,0,0,1-4-.43c-.91-1.41-.26-3.24,1.24-4.28,7.26-5,15.18-6,23.28-7.33a1.32,1.32,0,0,0,1-.59c3.32-4.27,5.83-8.12,9.37-12.43a95,95,0,0,1,11.7-11.42,52.26,52.26,0,0,1,11.28-7.39c.84-.44-.11-1-.37-1-17.9-3.36-36.5-7.71-54.27-1.13-12.3,4.59-17.7,14.35-15.11,20.87,1.85,4.63,7.93,5.38,13.62,2.59A30.82,30.82,0,0,0,441.91,476c1.74-2.67,5.4-.74,3.42,3.89-5.2,12.22-15.13,21.92-27.24,22.33-10.3.33-16.95-7.24-16.92-16.59,0-18.44,20.57-30.58,42.14-32.4,26-2.15,50.58,4.77,76.38,7.9,19.76,2.39,38.71,2.45,58.57-2.12a3,3,0,0,1,3.84,3.36c-.19,3.43-2.85,6.73-9.39,10.3-7.44,4.08-15.22,5.32-23.35,5.39-19.66.16-38-7.5-56.92-11.62,0,.83.24,1.82-.45,2.34-10.5,7.74-20,15.6-26.33,26.64-.22.26-.1.5.27.47,5.51-.29,10.47-.43,15.63-.84.9-.08.93-.3.85-1a12.8,12.8,0,0,1,4-11.13c3.42-3.07,7.72-3.42,10.56-1.21,3.23,2.52,2.95,7.05,1.18,10.45a12.6,12.6,0,0,1-7.63,6.19s-.6.13-.51.67c.12.87,4,3,4.33,3.6a1.82,1.82,0,0,1-.43,2,2.47,2.47,0,0,1-1.89.9,3.93,3.93,0,0,1-1.92-.7,18.27,18.27,0,0,1-5.38-4.33c-.5-.62-.75-.63-2-.57-5.58.32-14.27,1.17-20.15,1.9-1.43.17-1.64.44-1.93.94-9.39,15.48-19.41,32.17-30.42,43.35-11.8,12-21.62,15.14-32,15.22m89.46-68.79c.15.79.46.95.82.88a8.6,8.6,0,0,0,4.9-3.53c1.06-1.55,1.55-3.78.5-4.67a2.77,2.77,0,0,0-3.58.42,8,8,0,0,0-2.64,6.9" transform="translate(-272.35 -422.14)" style="fill:#fff"/><path d="M512,594c-126.83,0-229.65-36.72-229.65-82S385.16,430,512,430s229.63,36.72,229.63,82S638.82,594,512,594m0-157.22c-122.38,0-221.57,33.82-221.57,75.19s99.19,75.2,221.57,75.2S733.56,553.41,733.56,512,634.37,436.83,512,436.83" transform="translate(-272.35 -422.14)" style="fill:#fff"/></svg>