<svg xmlns="http://www.w3.org/2000/svg" viewBox="0 0 390.9 53.73"><title>Hyundai Motor Company logo</title><path d="M369,538.87c29,0,52.45-12,52.45-26.86S398,485.13,369,485.13s-52.43,12-52.43,26.87S340,538.87,369,538.87m9.87-13.19c-.87,2-2.37,6.36-5.83,8.07a8.49,8.49,0,0,1-3.5.82,3.55,3.55,0,0,1-.54,0,91.78,91.78,0,0,1-26.23-3.63,1.41,1.41,0,0,1-.28-.12c-.7-.22-1.07-.55-1.07-1a1.34,1.34,0,0,1,.43-.86c.12-.08.28-.24.48-.4,1.74-1.46,7-5.26,16.87-9a86.56,86.56,0,0,1,12.34-3.92c2.67-.58,12.54-2.07,7.32,10m26.5-27.08a1.06,1.06,0,0,1,.88-.62,2,2,0,0,1,1.1.36c6.14,3.79,9.81,8.52,9.81,13.65,0,9.27-11.9,17.23-28.93,20.71-1.1.21-1.82.19-2.07-.07a.69.69,0,0,1,0-.83,3.76,3.76,0,0,1,.46-.63c9.28-10.93,16.32-27.07,18.33-31.71.15-.32.31-.65.42-.86m-46.08-.36c.87-2,2.38-6.34,5.83-8.05a8.55,8.55,0,0,1,3.5-.82h.53A91.63,91.63,0,0,1,395.37,493a1,1,0,0,0,.28.12c.7.24,1.06.55,1.06.94a1.18,1.18,0,0,1-.44.86c-.12.11-.26.25-.47.42-1.74,1.46-7,5.25-16.87,9a82.39,82.39,0,0,1-12.34,3.92c-2.67.58-12.53,2.06-7.32-10.07m-9.5-6.95c1.08-.21,1.82-.21,2.06.07a.64.64,0,0,1,0,.81,2.51,2.51,0,0,1-.46.64C342.11,503.73,335,519.88,333,524.52c-.17.33-.32.65-.43.87a1.11,1.11,0,0,1-.87.62,1.91,1.91,0,0,1-1.1-.36c-6.18-3.78-9.82-8.52-9.82-13.67,0-9.26,11.91-17.22,28.95-20.69" transform="translate(-316.55 -485.13)" style="fill:#003469"/><polygon points="151.5 7.67 151.5 22.3 134.91 22.3 134.91 7.67 125.79 7.67 125.79 46.04 134.91 46.04 134.91 30.62 151.5 30.62 151.5 46.04 160.64 46.04 160.64 7.67 160.16 7.67 151.5 7.67" style="fill:#003469"/><polygon points="194.12 7.67 184.56 22.87 175.01 7.67 164.23 7.67 179.99 32.77 179.99 46.04 189.13 46.04 189.13 32.77 204.88 7.67 204.05 7.67 194.12 7.67" style="fill:#003469"/><path d="M550.81,492.81v28.12a1.9,1.9,0,0,1-1.94,2H534.24V492.81h-9.13v38.37h27a7.3,7.3,0,0,0,7.85-7.84V492.81h-9.13Z" transform="translate(-316.55 -485.13)" style="fill:#003469"/><path d="M595.39,492.81h-27v38.37h9.13V501.11h14.64a1.91,1.91,0,0,1,1.93,1.93v28.13h9.13V500.65a7.73,7.73,0,0,0-2.11-5.73,7.86,7.86,0,0,0-5.74-2.12" transform="translate(-316.55 -485.13)" style="fill:#003469"/><path d="M638.68,492.81h-27v38.37h27a7.31,7.31,0,0,0,7.85-7.84V500.65a7.31,7.31,0,0,0-7.85-7.84m-1.29,10.3v17.77a1.93,1.93,0,0,1-1.94,2H620.82V501.11H635.4a1.91,1.91,0,0,1,2,2" transform="translate(-316.55 -485.13)" style="fill:#003469"/><path d="M662.44,492.81a7.31,7.31,0,0,0-7.84,7.84v30.53h9.11V519.31h16.59v11.87h9.1V492.81h-27Zm17.87,8.3V511H663.72v-7.93a1.94,1.94,0,0,1,1.94-2Z" transform="translate(-316.55 -485.13)" style="fill:#003469"/><polygon points="390.42 7.67 381.76 7.67 381.76 46.04 390.9 46.04 390.9 7.67 390.42 7.67" style="fill:#003469"/></svg>