<svg xmlns="http://www.w3.org/2000/svg" viewBox="0 0 181.25 42.89"><title>KIA logo</title><path d="M526.54,528.78c0,.36.18.54.36.54s.36,0,.36-.18l56.53-36.79a5.38,5.38,0,0,1,3.23-1.08h12.38a3,3,0,0,1,3.23,3.23v23.69c0,2.87-.72,4.49-3.23,6.1l-15.07,9a.66.66,0,0,1-.54.18c-.18,0-.36-.18-.36-.72V505.09c0-.36-.18-.54-.36-.54s-.36,0-.36.18l-41.27,26.92a5.54,5.54,0,0,1-3.23.9H510.92a3,3,0,0,1-3.23-3.23v-34.1c0-.18-.18-.54-.36-.54s-.36,0-.36.18L479.7,511.37c-.36.18-.36.36-.36.36,0,.18,0,.18.18.36l19.38,19.38a1.36,1.36,0,0,1,.36.72c0,.18-.36.36-.54.36H481.13a4.36,4.36,0,0,1-3.23-.9l-11.84-11.84c-.18-.18-.18-.18-.36-.18s-.18,0-.36.18L445.6,531.65a5.54,5.54,0,0,1-3.23.9H424.61a3,3,0,0,1-3.23-3.23V506c0-2.87.72-4.49,3.23-6.1l15.07-9.15a.56.56,0,0,1,.36-.18c.18,0,.36.18.36.72v31c0,.36.18.54.36.54a.66.66,0,0,0,.54-.18l51.14-30.87a5.74,5.74,0,0,1,3.41-.9h27.64a3,3,0,0,1,3.23,3.23v34.63Z" transform="translate(-421.38 -490.56)"/></svg>