<svg id="Layer_1" data-name="Layer 1" xmlns="http://www.w3.org/2000/svg" viewBox="0 0 158.85 111.62"><title>Lada logo - Brandlogos.net</title><path d="M311.55,356.09c0-15.41,31.23-27.9,69.76-27.9s69.76,12.49,69.76,27.9S419.83,384,381.3,384s-69.76-12.49-69.76-27.9Zm85.31,2.44a.23.23,0,0,0-.19-.18c-1.92-.28-3.94-.52-6-.69-.12,0-.2-.13-.12-.39,6.45-6.78,8.9-15.42,5.64-22.17a.24.24,0,0,1,.26-.21c22.19,2.69,38.38,11.16,38.38,21.2,0,12.2-23.94,22.09-53.48,22.09s-53.48-9.89-53.48-22.09c0-10.58,18-19.42,42-21.58.12,0,.21.09.22.28l-5.22,28.73a3.49,3.49,0,0,0,3.43,4.15h.19a32.43,32.43,0,0,0,14.38-4.42,36.84,36.84,0,0,0,3.86-2.57.23.23,0,0,1,.26,0c1.57,1,2.48,2.27,2.48,3.59,0,1.78-1.67,3.41-4.42,4.64a33.17,33.17,0,0,1-13,2.33,35.92,35.92,0,0,1-11.5-1.73.23.23,0,0,0-.27.19l-.44,2.44a.23.23,0,0,0,.18.26,95.19,95.19,0,0,0,21.34,2.31c9.63,0,17.44-3.12,17.44-7,0-1.5-1.18-2.88-3.19-4-1.76-.86-2.87-2-2.59-2.73s2-.9,4-.37c.11,0,.22-.05.26-.26l-.33-1.81ZM381.3,340.95c0,.15,0,.3,0,.45.25,5.12-2.91,12-8.7,17.76a37.21,37.21,0,0,1-3.66,3.21.23.23,0,0,1-.17,0,.24.24,0,0,1-.18-.28l5.67-31.21a.23.23,0,0,0-.22-.22c-31.25,1.47-55.51,12.28-55.51,25.41,0,14.13,28.11,25.58,62.78,25.58s62.78-11.45,62.78-25.58S416,330.52,381.3,330.52c-1.1,0-2.19,0-3.29,0a.23.23,0,0,0-.23.18l-.66,3.64a.23.23,0,0,0,.11.24,7,7,0,0,1,4.06,6.34Z" transform="translate(-304.57 -328.19)" style="fill:#0060a9;fill-rule:evenodd"/><polygon points="11.72 69.75 11.72 103.93 30.69 103.93 30.69 111.62 0 111.62 0 69.75 11.72 69.75 11.72 69.75" style="fill:#0060a9;fill-rule:evenodd"/><path d="M362.14,422.85l-5.47-15.25-5.47,15.25Zm2-24.88L380,439.8H367.83l-3.5-9.88H349l-3.5,9.88h-9.78L351.48,398Z" transform="translate(-304.57 -328.19)" style="fill:#0060a9;fill-rule:evenodd"/><path d="M393,432.1h5.25c3.14,0,7.3-.55,10-4.15a15.68,15.68,0,0,0,2.77-9.51c0-2.2-.29-6.65-3.43-9.76-2.92-2.81-6.71-3-9.56-3h-5V432.1Zm-11.68-34.15h17.15c5,0,12.48.49,18.24,5.43,4.67,4,6.86,10.43,6.86,15.43,0,3.66-1.17,11.16-7.59,16.22-5.11,4-10.87,4.76-16.27,4.76H381.32V397.95Z" transform="translate(-304.57 -328.19)" style="fill:#0060a9;fill-rule:evenodd"/><path d="M445.55,422.83l-5.47-15.25-5.47,15.25Zm2-24.88,15.91,41.84H451.24l-3.5-9.88H432.41l-3.5,9.88h-9.78l15.76-41.84Z" transform="translate(-304.57 -328.19)" style="fill:#0060a9;fill-rule:evenodd"/></svg>